#!OML:ASF X:\für Bonn\!DataBase\2005_08_11_Bastian_Final\c3d\Bastian.ASF
:FULLY-SPECIFIED
:DEGREES
351
root 1.81643 1.59685 25.0094 -798.478 -163.32 -724.133
lowerback 72.6905 3.06058 6.53403
upperback 22.568 -12.2404 -0.527374
thorax 4.88274 -14.3144 0.284649
lowerneck -18.2694 -2.7975 -3.25044
upperneck 3.59731 -2.80165 1.06779
head 4.03504 -1.25141 0.618187
rclavicle 7.84454e-014 -2.40529e-014
rhumerus -67.6197 23.7244 -108.184
rradius 74.3582
rwrist -59.8541
rhand -38.6049 -25.1584
rfingers 7.12502
rthumb -11.6227 -54.816
lclavicle 7.84454e-014 -2.40529e-014
lhumerus 35.0153 -54.9135 -3.48032
lradius 49.7421
lwrist 22.3862
lhand -5.07744 -13.6547
lfingers 7.12502
lthumb 20.719 15.2593
rfemur -55.0683 -9.5083 10.8486
rtibia 89.1702
rfoot 16.4088 -1.96802
rtoes 4.39296
lfemur -77.5352 26.7377 -26.977
ltibia 144.144
lfoot 9.78518 -16.9405
ltoes -11.6376
352
root 1.81385 1.58965 25.0161 -798.658 -163.268 -724.031
lowerback 72.5471 3.06595 6.54839
upperback 22.6467 -12.21 -0.515561
thorax 4.96492 -14.3006 0.260257
lowerneck -18.2634 -2.79692 -3.3104
upperneck 3.66435 -2.79768 1.12845
head 4.05671 -1.24897 0.646475
rclavicle 8.14023e-014 2.88238e-014
rhumerus -68.0114 24.0606 -108.315
rradius 74.8691
rwrist -60.2238
rhand -38.7243 -25.3459
rfingers 7.12502
rthumb -11.7378 -54.997
lclavicle 8.14023e-014 2.88238e-014
lhumerus 35.5356 -55.8621 -4.0773
lradius 49.7641
lwrist 22.5351
lhand -4.93187 -13.5313
lfingers 7.12502
lthumb 20.8589 15.3674
rfemur -54.8452 -9.60232 10.7896
rtibia 89.0773
rfoot 16.4949 -1.72735
rtoes 4.59867
lfemur -77.4537 26.0172 -27.4054
ltibia 143.245
lfoot 10.1671 -15.8722
ltoes -12.2547
353
root 1.81092 1.58281 25.0227 -798.819 -163.222 -723.9
lowerback 72.3821 3.05741 6.54543
upperback 22.7033 -12.184 -0.497413
thorax 5.02011 -14.2815 0.258378
lowerneck -18.2229 -2.81282 -3.45439
upperneck 3.72984 -2.80452 1.24608
head 4.07495 -1.25041 0.705186
rclavicle -1.04039e-013 1.22253e-014
rhumerus -68.4453 24.4431 -108.449
rradius 75.3874
rwrist -60.6319
rhand -38.8131 -25.4744
rfingers 7.12502
rthumb -11.8234 -55.1206
lclavicle -1.04039e-013 1.22253e-014
lhumerus 35.8727 -56.8069 -4.45081
lradius 49.758
lwrist 22.6215
lhand -4.95218 -13.4535
lfingers 7.12502
lthumb 20.8394 15.4473
rfemur -54.6536 -9.72538 10.7455
rtibia 88.9916
rfoot 16.5386 -1.46145
rtoes 4.69945
lfemur -77.3819 25.1959 -27.8606
ltibia 142.285
lfoot 10.4723 -14.709
ltoes -13.0263
354
root 1.80762 1.57548 25.0276 -798.982 -163.176 -723.77
lowerback 72.1728 3.06662 6.53913
upperback 22.7958 -12.1549 -0.471951
thorax 5.1168 -14.2687 0.253879
lowerneck -18.1864 -2.84786 -3.60354
upperneck 3.7684 -2.83249 1.35332
head 4.08581 -1.26195 0.75981
rclavicle -1.05555e-013 1.16289e-014
rhumerus -68.8535 24.8394 -108.548
rradius 75.906
rwrist -60.9921
rhand -38.8359 -25.6214
rfingers 7.12502
rthumb -11.8454 -55.2663
lclavicle -1.05555e-013 1.16289e-014
lhumerus 36.1696 -57.7133 -4.75353
lradius 49.7642
lwrist 22.7103
lhand -5.09681 -13.29
lfingers 7.12502
lthumb 20.7004 15.626
rfemur -54.4778 -9.84222 10.7059
rtibia 88.933
rfoot 16.5968 -1.16475
rtoes 4.53514
lfemur -77.2698 24.3637 -28.3536
ltibia 141.266
lfoot 10.6135 -13.4918
ltoes -14.4022
355
root 1.80234 1.56992 25.0315 -799.148 -163.135 -723.646
lowerback 71.9513 3.07628 6.53188
upperback 22.9032 -12.1374 -0.452618
thorax 5.22992 -14.2652 0.242427
lowerneck -18.1952 -2.88729 -3.78306
upperneck 3.83643 -2.86215 1.50503
head 4.11402 -1.27216 0.832362
rclavicle 6.53505e-015 -4.27387e-015
rhumerus -69.2326 25.2669 -108.623
rradius 76.3863
rwrist -61.3096
rhand -38.7406 -25.6821
rfingers 7.12502
rthumb -11.7535 -55.3323
lclavicle 6.53505e-015 -4.27387e-015
lhumerus 36.3417 -58.5704 -4.94705
lradius 49.8083
lwrist 22.7921
lhand -5.30795 -13.1144
lfingers 7.12502
lthumb 20.4975 15.8236
rfemur -54.293 -9.94368 10.6481
rtibia 88.8862
rfoot 16.6266 -0.946855
rtoes 4.58515
lfemur -77.0689 23.5464 -28.9118
ltibia 140.159
lfoot 10.5984 -12.0686
ltoes -16.0797
